<?xml version="1.0" standalone="no"?>
<!DOCTYPE svg PUBLIC "-//W3C//DTD SVG 20010904//EN"
 "http://www.w3.org/TR/2001/REC-SVG-20010904/DTD/svg10.dtd">
<svg version="1.0" xmlns="http://www.w3.org/2000/svg"
 width="50pt" height="50pt" viewBox="0 0 500.000000 500.000000"
 preserveAspectRatio="xMidYMid meet">

<g transform="translate(0.000000,500.000000) scale(0.100000,-0.100000)"
fill="#000000" stroke="none">
<path d="M1420 4128 c0 -16 11 -28 32 -39 38 -18 64 -66 78 -141 7 -36 10
-373 8 -964 l-3 -909 -25 -50 c-14 -28 -39 -59 -57 -70 -20 -13 -32 -28 -33
-42 l0 -23 380 0 380 0 0 -152 c0 -241 -22 -324 -94 -363 -26 -14 -36 -26 -34
-40 3 -19 12 -20 261 -23 l257 -2 0 24 c0 15 -7 27 -18 30 -10 4 -31 19 -46
35 -43 45 -56 119 -56 318 l0 173 233 2 232 3 11 175 c5 96 8 178 6 183 -10
20 -33 1 -62 -50 -39 -69 -120 -157 -176 -189 -41 -24 -178 -64 -221 -64 l-23
0 0 266 0 266 168 -5 c217 -6 269 -22 357 -111 69 -69 110 -144 180 -321 87
-222 217 -520 251 -577 46 -76 121 -142 181 -159 52 -15 180 -18 256 -6 37 7
47 12 47 28 0 15 -7 19 -35 19 -122 0 -188 98 -365 540 -45 113 -102 245 -128
294 -90 176 -210 259 -427 299 -26 5 -16 9 109 37 140 32 242 86 333 176 118
116 159 228 151 406 -4 88 -9 106 -42 172 -61 124 -176 204 -360 251 -152 38
-250 45 -673 45 -377 0 -403 -1 -403 -17 0 -10 17 -28 39 -40 88 -50 91 -82
91 -890 l0 -673 -141 0 c-115 0 -146 3 -170 17 -63 37 -60 -13 -57 1040 3 786
6 964 17 993 16 42 58 89 89 101 13 5 22 17 22 29 0 20 -6 20 -260 20 l-260 0
0 -22z m1455 -642 c239 -72 365 -222 382 -451 16 -235 -96 -406 -312 -476 -61
-19 -98 -23 -282 -27 l-213 -4 0 497 0 497 168 -4 c144 -5 179 -9 257 -32z"/>
<path d="M2071 3753 c1 -38 4 -56 6 -40 5 34 16 34 37 2 9 -14 22 -25 28 -25
7 0 3 10 -9 21 -20 21 -20 22 -2 40 11 11 19 23 19 28 0 18 -32 41 -56 41 -23
0 -24 -2 -23 -67z m57 25 c-2 -15 -11 -24 -25 -26 -19 -3 -23 1 -23 22 0 21 5
26 26 26 21 0 25 -4 22 -22z"/>
<path d="M2200 3755 l0 -65 38 2 c36 1 36 1 5 5 -27 4 -33 9 -33 28 0 19 6 24
33 28 l32 4 -33 1 c-29 2 -33 5 -30 24 2 16 12 25 33 29 29 6 29 7 -7 8 l-38
1 0 -65z"/>
<path d="M2330 3814 c0 -6 9 -23 20 -37 11 -14 21 -40 21 -59 l1 -33 7 36 c4
20 17 49 29 64 12 16 20 31 16 34 -3 3 -10 -1 -14 -9 -28 -46 -29 -46 -55 -15
-14 17 -25 25 -25 19z"/>
<path d="M1462 1753 c-2 -52 -1 -53 26 -52 22 1 23 2 5 6 -18 4 -23 12 -26 51
l-3 47 -2 -52z"/>
<path d="M1558 1772 c11 -15 22 -38 25 -52 4 -24 4 -24 6 3 0 15 8 40 17 55
l16 27 -20 -23 -21 -23 -13 20 c-7 12 -17 21 -21 21 -5 0 0 -12 11 -28z"/>
<path d="M1662 1750 c1 -52 1 -53 7 -15 l6 40 28 -40 27 -40 -2 55 c-1 38 -2
45 -5 21 l-4 -34 -29 34 -29 34 1 -55z"/>
<path d="M1780 1750 c0 -46 2 -50 23 -50 27 0 57 28 57 53 0 23 -28 47 -56 47
-22 0 -24 -4 -24 -50z m64 18 c14 -23 -3 -52 -33 -56 -19 -3 -21 1 -21 38 0
37 2 41 21 38 12 -2 27 -11 33 -20z"/>
<path d="M1912 1788 c-28 -28 -2 -88 38 -88 40 0 66 60 38 88 -7 7 -24 12 -38
12 -14 0 -31 -5 -38 -12z m74 -23 c7 -29 -10 -55 -36 -55 -26 0 -43 26 -36 55
5 20 13 25 36 25 23 0 31 -5 36 -25z"/>
<path d="M2052 1750 c1 -54 1 -54 8 -15 4 22 8 36 9 30 0 -5 12 -23 26 -40
l24 -30 1 53 c0 57 -17 72 -22 20 l-3 -33 -22 35 -23 35 2 -55z"/>
</g>
</svg>
