<?xml version="1.0" standalone="no"?>
<!DOCTYPE svg PUBLIC "-//W3C//DTD SVG 20010904//EN"
 "http://www.w3.org/TR/2001/REC-SVG-20010904/DTD/svg10.dtd">
<svg version="1.0" xmlns="http://www.w3.org/2000/svg"
 width="50pt" height="50pt" viewBox="0 0 500.000000 500.000000"
 preserveAspectRatio="xMidYMid meet">

<g transform="translate(0.000000,500.000000) scale(0.100000,-0.100000)"
fill="#000000" stroke="none">
<path d="M2250 4716 c-651 -77 -1215 -418 -1592 -961 -206 -297 -339 -662
-379 -1040 -14 -133 -6 -397 16 -545 131 -870 763 -1583 1610 -1818 216 -60
336 -76 585 -76 251 -1 348 11 575 69 769 197 1389 817 1589 1587 56 216 70
327 70 553 0 278 -29 467 -111 717 -104 317 -302 638 -542 876 -338 336 -768
553 -1242 627 -144 22 -435 28 -579 11z m538 -182 c684 -101 1267 -530 1563
-1149 139 -289 201 -573 201 -905 -2 -771 -439 -1467 -1143 -1821 -280 -140
-581 -211 -904 -211 -263 -1 -444 30 -697 118 -570 198 -1034 661 -1241 1239
-71 195 -103 355 -118 589 -48 755 347 1486 1020 1883 208 123 476 217 740
258 123 19 448 19 579 -1z"/>
<path d="M2296 4429 c-289 -30 -568 -129 -836 -294 -313 -194 -594 -523 -740
-868 -273 -645 -191 -1362 220 -1917 186 -250 411 -438 703 -586 528 -269
1175 -270 1708 -4 653 326 1057 948 1086 1670 30 763 -389 1463 -1085 1810
-318 159 -698 227 -1056 189z m-334 -1646 l3 -498 143 -3 142 -3 0 501 0 500
463 0 c494 0 512 -1 610 -52 274 -139 274 -568 1 -701 -24 -11 -44 -25 -44
-31 0 -9 173 -340 257 -493 l35 -63 -244 0 -244 0 -119 245 -118 245 -79 0
-78 0 0 -245 0 -245 -580 0 -580 0 0 670 0 670 215 0 215 0 2 -497z"/>
<path d="M2690 2854 l0 -125 165 3 165 3 31 31 c62 62 43 167 -36 200 -25 10
-76 14 -180 14 l-145 0 0 -126z"/>
</g>
</svg>
